<svg xmlns="http://www.w3.org/2000/svg" viewBox="0 0 256 256"><defs><radialGradient id="c"><stop stop-color="#fff"/><stop offset=".52" stop-color="#ffe8f6"/><stop offset="1" stop-color="#c9b0eb"/></radialGradient><linearGradient id="m" x1="0" y1="0" x2="1" y2="1"><stop stop-color="#ff9dcc"/><stop offset=".5" stop-color="#b794ff"/><stop offset="1" stop-color="#7bd8ff"/></linearGradient></defs><ellipse cx="124" cy="224" rx="66" ry="11" fill="#5f486f" opacity=".22"/><path d="M67 155c0-35 16-66 47-82 27-13 58-5 71 19 12 23 6 54-10 73-15 18-34 27-60 28-30 1-47-13-48-38Z" fill="url(#c)" stroke="#564267" stroke-width="6"/><path d="M102 79c-9-23 2-39 26-41 19-1 31-10 36-21 10 20 4 44-17 59Z" fill="url(#m)" stroke="#564267" stroke-width="6"/><path d="M171 72 188 21l19 52Z" fill="#f2c1ff" stroke="#564267" stroke-width="6"/><path d="M92 163 61 198" stroke="#564267" stroke-width="10" stroke-linecap="round"/><path d="M166 164 198 194" stroke="#564267" stroke-width="10" stroke-linecap="round"/><path d="M91 142c19 18 49 23 76 7" fill="none" stroke="#fff" stroke-width="8" opacity=".43" stroke-linecap="round"/><circle cx="112" cy="125" r="7" fill="#241c2e"/><circle cx="158" cy="125" r="7" fill="#241c2e"/><circle cx="110" cy="122" r="2.8" fill="#fff"/><circle cx="156" cy="122" r="2.8" fill="#fff"/><path d="M129 139q8 9 17-1" fill="none" stroke="#6a4d72" stroke-width="5" stroke-linecap="round"/><path d="M192 128h42M204 111l30-16M204 145l30 16" stroke="#fff1a8" stroke-width="7" stroke-linecap="round"/><path d="M228 128l-13-7v14Z" fill="#f2c1ff"/></svg>