<svg xmlns="http://www.w3.org/2000/svg" viewBox="0 0 256 256"><defs><radialGradient id="c" cx="38%" cy="28%"><stop offset="0" stop-color="#fffdfd"/><stop offset=".55" stop-color="#ffe9f6"/><stop offset="1" stop-color="#d7c2f4"/></radialGradient><linearGradient id="m" x1="0" y1="0" x2="1" y2="1"><stop stop-color="#ffb7d8"/><stop offset=".5" stop-color="#bda2ff"/><stop offset="1" stop-color="#8fd0ff"/></linearGradient></defs><ellipse cx="128" cy="225" rx="66" ry="12" fill="#6b4f80" opacity=".25"/><path d="M72 150c-7-31 2-70 36-88 20-11 50-10 70 5 24 18 26 56 10 83-10 17-26 29-60 30-34 1-50-9-56-30Z" fill="url(#c)" stroke="#5a466b" stroke-width="6"/><path d="M100 78c-18-25-4-41 20-34 15 5 30 2 39-10 6 24 1 45-17 56Z" fill="url(#m)" stroke="#5a466b" stroke-width="6"/><path d="M166 69 184 20l18 52Z" fill="#f2c1ff" stroke="#5a466b" stroke-width="6" stroke-linejoin="round"/><path d="M86 146c8 23 40 35 71 24 23-8 37-29 35-55" fill="none" stroke="#ffffff" stroke-width="9" opacity=".45" stroke-linecap="round"/><circle cx="112" cy="126" r="7" fill="#241c2e"/><circle cx="157" cy="126" r="7" fill="#241c2e"/><circle cx="109" cy="123" r="2.8" fill="#fff"/><circle cx="154" cy="123" r="2.8" fill="#fff"/><path d="M126 140q8 8 16 0" fill="none" stroke="#6a4d72" stroke-width="5" stroke-linecap="round"/></svg>